<svg width="56" height="56" viewBox="0 0 56 56" fill="none" xmlns="http://www.w3.org/2000/svg">
<path d="M28 0C22.4621 0 17.0486 1.64217 12.444 4.71885C7.83947 7.79553 4.25064 12.1685 2.13139 17.2849C0.0121319 22.4012 -0.542361 28.0311 0.538025 33.4625C1.61841 38.894 4.28515 43.8831 8.20102 47.799C12.1169 51.7149 17.106 54.3816 22.5375 55.462C27.969 56.5424 33.5988 55.9879 38.7151 53.8686C43.8315 51.7494 48.2045 48.1605 51.2812 43.556C54.3578 38.9514 56 33.5379 56 28C55.9917 20.5765 53.039 13.4594 47.7898 8.21019C42.5406 2.96097 35.4235 0.00831096 28 0ZM28 54C22.8577 54 17.8309 52.4751 13.5552 49.6182C9.27951 46.7613 5.94702 42.7006 3.97914 37.9498C2.01127 33.1989 1.49638 27.9712 2.4996 22.9277C3.50281 17.8841 5.97907 13.2514 9.61524 9.61522C13.2514 5.97906 17.8842 3.5028 22.9277 2.49958C27.9712 1.49637 33.1989 2.01125 37.9498 3.97913C42.7007 5.94701 46.7613 9.2795 49.6182 13.5552C52.4751 17.8309 54 22.8577 54 28C53.9924 34.8933 51.2506 41.502 46.3763 46.3763C41.5021 51.2506 34.8933 53.9924 28 54ZM28 31C28.5934 31 29.1734 30.8241 29.6667 30.4944C30.1601 30.1648 30.5446 29.6962 30.7717 29.148C30.9987 28.5999 31.0581 27.9967 30.9424 27.4147C30.8266 26.8328 30.5409 26.2982 30.1213 25.8787C29.7018 25.4591 29.1672 25.1734 28.5853 25.0576C28.0033 24.9419 27.4001 25.0013 26.852 25.2284C26.3038 25.4554 25.8352 25.8399 25.5056 26.3333C25.176 26.8266 25 27.4067 25 28C25.0009 28.7954 25.3172 29.5579 25.8797 30.1204C26.4421 30.6828 27.2046 30.9991 28 31ZM28 27C28.1978 27 28.3911 27.0586 28.5556 27.1685C28.72 27.2784 28.8482 27.4346 28.9239 27.6173C28.9996 27.8 29.0194 28.0011 28.9808 28.1951C28.9422 28.3891 28.847 28.5673 28.7071 28.7071C28.5673 28.847 28.3891 28.9422 28.1951 28.9808C28.0011 29.0194 27.8001 28.9996 27.6173 28.9239C27.4346 28.8482 27.2784 28.72 27.1685 28.5556C27.0587 28.3911 27 28.1978 27 28C27.0002 27.7348 27.1056 27.4806 27.2931 27.2931C27.4806 27.1056 27.7348 27.0002 28 27ZM7.16701 18.8418L22.6563 21.8918C22.7914 21.9182 22.9305 21.9165 23.0648 21.8868C23.1992 21.8571 23.326 21.8 23.4374 21.7191C23.5487 21.6382 23.6422 21.5352 23.7119 21.4165C23.7817 21.2979 23.8262 21.1661 23.8428 21.0295L25.7236 5.3595C25.742 5.20733 25.7252 5.05295 25.6744 4.90832C25.6237 4.76369 25.5403 4.63268 25.4308 4.52542C25.3213 4.41817 25.1886 4.33754 25.0429 4.28978C24.8973 4.24202 24.7426 4.22841 24.5908 4.25C20.7233 4.79748 17.0488 6.28416 13.8886 8.58003C10.7285 10.8759 8.17891 13.911 6.46291 17.42C6.39513 17.5577 6.35997 17.7091 6.36014 17.8625C6.36031 18.0159 6.39582 18.1673 6.46391 18.3048C6.532 18.4423 6.63084 18.5623 6.75277 18.6554C6.8747 18.7486 7.01644 18.8123 7.16701 18.8418ZM23.5781 6.4518L21.9854 19.7207L8.87211 17.1387C10.4158 14.4087 12.5275 12.0419 15.0645 10.1983C17.6016 8.35467 20.5049 7.07686 23.5781 6.4518ZM28.7334 36.08C28.6375 35.983 28.5233 35.906 28.3974 35.8535C28.2715 35.8009 28.1364 35.7738 28 35.7738C27.8636 35.7738 27.7285 35.8009 27.6026 35.8535C27.4768 35.906 27.3625 35.983 27.2666 36.08L16.5266 47.66C16.4223 47.7722 16.3453 47.907 16.3014 48.0537C16.2575 48.2005 16.248 48.3554 16.2736 48.5065C16.2992 48.6576 16.3592 48.8007 16.4489 48.9249C16.5387 49.049 16.6558 49.1509 16.7912 49.2225C20.2459 51.0465 24.0936 51.9998 28.0002 51.9998C31.9069 51.9998 35.7545 51.0465 39.2092 49.2225C39.3446 49.1509 39.4617 49.049 39.5515 48.9249C39.6413 48.8007 39.7012 48.6576 39.7268 48.5065C39.7524 48.3554 39.7429 48.2005 39.699 48.0537C39.6551 47.907 39.5781 47.7722 39.4738 47.66L28.7334 36.08ZM18.9053 48.036L28 38.2305L37.0947 48.0361C34.2319 49.31 31.1334 49.9683 28 49.9683C24.8666 49.9683 21.7681 49.3099 18.9053 48.036ZM32.5625 21.7188C32.6739 21.7997 32.8007 21.8568 32.9352 21.8865C33.0696 21.9163 33.2087 21.918 33.3438 21.8916L48.833 18.8416C48.9836 18.8121 49.1253 18.7483 49.2473 18.6551C49.3692 18.562 49.468 18.442 49.5361 18.3045C49.6042 18.167 49.6397 18.0156 49.6399 17.8622C49.6401 17.7088 49.6049 17.5574 49.5371 17.4197C47.8211 13.9108 45.2715 10.8757 42.1114 8.5799C38.9512 6.28409 35.2767 4.79745 31.4092 4.25C31.2575 4.22841 31.1028 4.24202 30.9571 4.28978C30.8115 4.33753 30.6788 4.41815 30.5693 4.52539C30.4598 4.63264 30.3764 4.76364 30.3256 4.90825C30.2748 5.05287 30.258 5.20723 30.2764 5.3594L32.1572 21.0294C32.1737 21.166 32.2182 21.2978 32.2879 21.4164C32.3577 21.535 32.4512 21.638 32.5625 21.7188ZM47.1279 17.1388L34.0146 19.7208L32.4219 6.4521C35.4952 7.07716 38.3984 8.35467 40.9355 10.1983C43.4725 12.0419 45.5843 14.4088 47.1279 17.1388ZM51.6445 23.9024C51.6173 23.752 51.556 23.6099 51.4653 23.4869C51.3747 23.364 51.257 23.2634 51.1214 23.193C50.9858 23.1225 50.8359 23.0841 50.6831 23.0807C50.5304 23.0772 50.3789 23.1088 50.2402 23.173L35.9102 29.803C35.7852 29.8607 35.6734 29.9436 35.582 30.0466C35.4905 30.1495 35.4213 30.2703 35.3788 30.4012C35.3362 30.5322 35.3212 30.6705 35.3346 30.8076C35.3481 30.9446 35.3898 31.0774 35.457 31.1976L43.147 44.9776C43.2216 45.1115 43.326 45.2265 43.4521 45.3135C43.5783 45.4006 43.7228 45.4574 43.8745 45.4796C43.9227 45.4866 43.9713 45.4902 44.02 45.4903C44.2795 45.4903 44.5288 45.3895 44.7153 45.2091C47.0306 42.9826 48.8699 40.3094 50.1221 37.3514C51.3742 34.3934 52.0131 31.2121 52 28C52.0032 26.6263 51.8843 25.2551 51.6445 23.9024ZM44.24 42.833L37.7285 31.165L49.8652 25.55C50.2114 28.6652 49.8887 31.8184 48.9186 34.7989C47.9486 37.7793 46.3535 40.5184 44.24 42.833ZM20.6211 30.4C20.5787 30.2691 20.5096 30.1483 20.4181 30.0455C20.3267 29.9426 20.2149 29.8598 20.0898 29.8023L5.75981 23.1723C5.62117 23.1081 5.46965 23.0765 5.31689 23.08C5.16413 23.0834 5.0142 23.1218 4.87861 23.1923C4.74301 23.2627 4.62536 23.3633 4.53468 23.4862C4.444 23.6092 4.38271 23.7513 4.35551 23.9017C4.11574 25.2546 3.99677 26.6261 4.00001 28C3.98703 31.2121 4.62599 34.3934 5.87821 37.3514C7.13044 40.3094 8.96989 42.9826 11.2852 45.209C11.4717 45.3894 11.721 45.4902 11.9805 45.4902C12.0292 45.4901 12.0778 45.4865 12.126 45.4795C12.2777 45.4573 12.4222 45.4005 12.5484 45.3134C12.6745 45.2264 12.779 45.1114 12.8535 44.9775L20.543 31.1975C20.6102 31.0771 20.6519 30.9441 20.6653 30.8069C20.6788 30.6697 20.6637 30.5311 20.6211 30.4ZM11.76 42.833C9.64653 40.5184 8.05145 37.7793 7.08138 34.7989C6.11131 31.8184 5.7886 28.6652 6.13481 25.55L18.2715 31.165L11.76 42.833ZM27 21C27 20.8022 27.0587 20.6089 27.1685 20.4444C27.2784 20.28 27.4346 20.1518 27.6173 20.0761C27.8001 20.0004 28.0011 19.9806 28.1951 20.0192C28.3891 20.0578 28.5673 20.153 28.7071 20.2929C28.847 20.4327 28.9422 20.6109 28.9808 20.8049C29.0194 20.9989 28.9996 21.2 28.9239 21.3827C28.8482 21.5654 28.72 21.7216 28.5556 21.8315C28.3911 21.9414 28.1978 22 28 22C27.7348 22 27.4804 21.8946 27.2929 21.7071C27.1054 21.5196 27 21.2652 27 21ZM21.6516 24.8858C21.8397 24.9469 22.0055 25.0624 22.1279 25.2177C22.2504 25.3731 22.324 25.5612 22.3396 25.7584C22.3551 25.9556 22.3118 26.1529 22.2152 26.3255C22.1185 26.4981 21.9729 26.6381 21.7966 26.7279C21.6204 26.8177 21.4215 26.8532 21.2251 26.8299C21.0287 26.8067 20.8436 26.7257 20.6932 26.5973C20.5428 26.4688 20.4339 26.2986 20.3802 26.1083C20.3265 25.9179 20.3305 25.7159 20.3916 25.5278C20.4736 25.2756 20.6524 25.0663 20.8887 24.9459C21.125 24.8255 21.3994 24.8039 21.6516 24.8858ZM24.4733 32.8541C24.6333 32.9704 24.7553 33.1314 24.8237 33.317C24.8922 33.5026 24.9041 33.7043 24.8579 33.8966C24.8117 34.0889 24.7095 34.2632 24.5643 34.3974C24.4191 34.5317 24.2373 34.6199 24.0419 34.6508C23.8466 34.6817 23.6464 34.654 23.4668 34.5712C23.2872 34.4884 23.1362 34.3542 23.0329 34.1856C22.9295 34.0169 22.8785 33.8215 22.8863 33.6238C22.8941 33.4262 22.9603 33.2353 23.0765 33.0753C23.2324 32.8607 23.4672 32.7169 23.7291 32.6754C23.9911 32.6339 24.2588 32.6982 24.4733 32.8541ZM32.9233 33.0753C33.0396 33.2353 33.1058 33.4262 33.1135 33.6238C33.1213 33.8215 33.0703 34.0169 32.967 34.1856C32.8636 34.3542 32.7126 34.4884 32.533 34.5712C32.3534 34.654 32.1532 34.6817 31.9579 34.6508C31.7626 34.6199 31.5808 34.5317 31.4355 34.3974C31.2903 34.2632 31.1881 34.0889 31.1419 33.8966C31.0958 33.7043 31.1077 33.5026 31.1761 33.317C31.2446 33.1314 31.3665 32.9704 31.5265 32.8541C31.6328 32.7769 31.7532 32.7213 31.8809 32.6907C32.0086 32.66 32.1411 32.6548 32.2708 32.6753C32.4006 32.6959 32.525 32.7418 32.637 32.8104C32.7489 32.879 32.8461 32.969 32.9233 33.0753ZM35.6083 25.5278C35.6694 25.7159 35.6734 25.9179 35.6197 26.1083C35.5661 26.2986 35.4571 26.4688 35.3067 26.5973C35.1563 26.7257 34.9712 26.8067 34.7748 26.8299C34.5784 26.8532 34.3795 26.8177 34.2033 26.7279C34.0271 26.6381 33.8814 26.4981 33.7848 26.3255C33.6881 26.1529 33.6448 25.9556 33.6604 25.7584C33.6759 25.5612 33.7495 25.3731 33.872 25.2177C33.9944 25.0624 34.1602 24.9469 34.3483 24.8858C34.4732 24.8452 34.6049 24.8296 34.7358 24.8399C34.8667 24.8502 34.9944 24.8862 35.1114 24.9458C35.2284 25.0054 35.3325 25.0875 35.4178 25.1873C35.5031 25.2872 35.5677 25.4029 35.6083 25.5278Z" fill="#FBEA00"/>
</svg>
